<?xml version="1.0" encoding="UTF-8"?>
<svg width="23px" height="29px" viewBox="0 0 23 29" version="1.1" xmlns="http://www.w3.org/2000/svg" xmlns:xlink="http://www.w3.org/1999/xlink">
    <!-- Generator: Sketch 64 (93537) - https://sketch.com -->
    <title>铜牌</title>
    <desc>Created with Sketch.</desc>
    <g id="页面-1" stroke="none" stroke-width="1" fill="none" fill-rule="evenodd">
        <g id="积分榜" transform="translate(-16.000000, -254.000000)" fill="#6C4311" fill-rule="nonzero">
            <g id="6.Table-DM/列表/聊天备份-2" transform="translate(0.000000, 232.000000)">
                <g id="6.Table-DM/列表/聊天">
                    <g id="iOSDM/Table/Cell/Chat-List">
                        <g id="iOS/Table/Cell/Chat-List">
                            <g id="铜牌" transform="translate(16.000000, 22.000000)">
                                <path d="M23,6.095796 L23,0.894383184 C23,0.659545141 22.9069421,0.429703653 22.7453152,0.259820813 C22.5787905,0.0899379738 22.3583901,0 22.1232964,0 L0.896294719,0 C0.724872232,0 0.55834753,0.0449689869 0.411413969,0.134906961 C0.151831346,0.299793246 0,0.589593384 0,0.894383184 L0,5.72105445 C0.00489778535,5.95589249 0.097955707,6.18073742 0.264480409,6.34562371 L3.4088586,9.53842178 C1.94931857,11.1223294 0.920783646,13.1309442 0.519165247,15.3644039 C0.42120954,15.9140248 0.832623509,16.4186768 1.38117547,16.4186768 C1.80238501,16.4186768 2.16482112,16.113887 2.24318569,15.6891799 C2.36073254,15.0146451 2.55174617,14.3451068 2.81622658,13.6955548 C4.29535775,10.0480703 7.78747871,7.66971054 11.6567291,7.66971054 C16.9365417,7.67970365 21.2172061,12.0466919 21.2270017,17.4329773 C21.2270017,21.380255 18.8956559,24.9427981 15.3202726,26.4517574 C11.7448893,27.9607167 7.62585179,27.1262922 4.88798978,24.3332185 C3.47252981,22.8892143 2.57133731,21.0654721 2.23339012,19.1417988 C2.15992334,18.7170917 1.79258944,18.4123019 1.3713799,18.4123019 L1.36648211,18.4123019 C0.822827939,18.4123019 0.411413969,18.9119573 0.504471891,19.4565817 C1.43505111,24.8778429 6.07325383,29 11.6567291,29 C17.9063032,28.9900069 22.9706133,23.82357 22.9804089,17.4479669 C22.9804089,14.265162 21.7167802,11.3771537 19.6744037,9.28859407 L22.6473595,6.80530669 C22.8677598,6.64541695 23,6.37560303 23,6.095796 L23,6.095796 Z M6.83730835,6.99517574 C6.0830494,7.35492764 5.37776831,7.79962095 4.72636286,8.31926258 L1.75340716,5.3662991 L1.75340716,1.78876637 L6.83730835,1.78876637 L6.83730835,6.99517574 L6.83730835,6.99517574 Z M14.7276405,6.33063405 C13.7529813,6.05082702 12.7244463,5.90093039 11.6616269,5.90093039 C10.5988075,5.90093039 9.57027257,6.05082702 8.59561329,6.33063405 L8.59561329,1.78876637 L14.7325383,1.78876637 L14.7276405,6.33063405 L14.7276405,6.33063405 Z M21.2123083,5.65110269 L18.322615,8.11440386 C17.7446763,7.68470021 17.1324532,7.30995865 16.4810477,7.00017229 L16.4810477,1.78876637 L21.2123083,1.78876637 L21.2123083,5.65110269 L21.2123083,5.65110269 Z" id="形状"></path>
                                <path d="M17.2561705,14.3571991 L13.8201786,13.7895358 L12.3299285,10.5318647 C12.1863496,10.2147915 11.8843388,10.0102282 11.552622,10 C11.2357582,10.0102282 10.9486004,10.2096774 10.8248255,10.5114083 L9.23060444,13.7128245 L5.77480859,14.167978 C5.4381408,14.2140047 5.15593397,14.4492526 5.04701204,14.781668 C4.93809011,15.1140834 5.02225705,15.4771833 5.25990491,15.7226593 L7.80966832,18.3564123 L7.17098972,21.8902439 C7.11157776,22.2328875 7.24030368,22.5806452 7.50765751,22.7852085 C7.79481533,22.9642014 8.15623811,22.9642014 8.44834693,22.7852085 L11.547671,21.1538159 L14.5232202,22.8721479 C14.6519461,22.9437451 14.800476,22.9795437 14.9490059,22.9795437 L14.845035,23 C15.1024868,23 15.3500366,22.877262 15.5134195,22.6778127 C15.6817534,22.4732494 15.7510674,22.202203 15.7114594,21.9413847 L15.1817027,18.3922109 L17.7166132,15.9221086 C17.964163,15.6817467 18.058232,15.3237608 17.964163,14.9862313 C17.8601921,14.6640441 17.5878873,14.413454 17.2561705,14.3571991 L17.2561705,14.3571991 Z M13.6567957,17.3796223 C13.4439028,17.5841857 13.3448829,17.8859166 13.3894419,18.1825334 L13.7261096,20.3764752 L11.8298778,19.31786 C11.7011519,19.2462628 11.552622,19.2104642 11.4040921,19.2104642 L11.547671,19.2309205 C11.3793371,19.2104642 11.2060522,19.2411487 11.0525713,19.322974 L9.1365355,20.3253344 L9.52766426,18.1313926 C9.57717423,17.8347758 9.48310528,17.5381589 9.28011441,17.3284815 L7.75520736,15.7533438 L9.89898903,15.4618411 C10.1861468,15.4209284 10.4386477,15.2368214 10.5723246,14.965775 L11.547671,12.9866247 L12.4338995,14.9811172 C12.5576744,15.2521637 12.8002732,15.4464988 13.087431,15.4925256 L15.2114087,15.8402832 L13.6567957,17.3796223 L13.6567957,17.3796223 Z" id="形状"></path>
                            </g>
                        </g>
                    </g>
                </g>
            </g>
        </g>
    </g>
</svg>